<svg version="1.1" preserveAspectRatio="none" xmlns="http://www.w3.org/2000/svg" width="500" height="500" viewBox="0 0 500 500"><rect width="100%" height="100%" fill="#FFFFFF" fill-opacity="1"/><svg viewBox="348.1916 380 303.6166 240" width="333" height="263.22671421786555" x="83.5px" y="118.3866px" xmlns="http://www.w3.org/2000/svg" xmlns:xlink="http://www.w3.org/1999/xlink" preserveAspectRatio="none"><defs></defs><style>.companyName {fill:#40455F;fill-opacity:1;}.icon3-str {stroke:#929292;stroke-opacity:1;}.shape {fill:#EBEBEB;fill-opacity:1;}</style><g opacity="1" transform="rotate(0 348.1916 500)">
<svg width="303.6166" height="120" x="348.1916" y="500" version="1.1" preserveAspectRatio="none" viewBox="2.44 -32.76 84 33.2">
  <g transform="matrix(1 0 0 -1 0 -32.31999999999999)" class="shape"><path id="id-fAwcDUYEQ4" d="M2.44 0L2.44-32.40L15.76-32.40L15.76-28.32L8.32-28.32L8.32-18.88L14.40-18.88L14.40-14.76L8.32-14.76L8.32 0L2.44 0Z M27.80 0.44Q22.76 0.44 20.60-2.26Q18.44-4.96 18.44-10.16L18.44-10.16L18.44-22.32Q18.44-27.48 20.60-30.12Q22.76-32.76 27.80-32.76L27.80-32.76Q32.80-32.76 34.96-30.12Q37.12-27.48 37.12-22.32L37.12-22.32L37.12-10.16Q37.12-5 34.94-2.28Q32.76 0.44 27.80 0.44L27.80 0.44ZM27.80-3.92Q29.76-3.92 30.44-5.16Q31.12-6.40 31.12-8.76L31.12-8.76L31.12-23.68Q31.12-26.04 30.46-27.24Q29.80-28.44 27.80-28.44L27.80-28.44Q25.80-28.44 25.12-27.22Q24.44-26 24.44-23.68L24.44-23.68L24.44-8.76Q24.44-6.40 25.12-5.16Q25.80-3.92 27.80-3.92L27.80-3.92Z M41.48 0L41.48-32.40L49.28-32.40Q54.40-32.40 56.92-30.46Q59.44-28.52 59.44-23.80L59.44-23.80Q59.44-20.72 58.54-18.78Q57.64-16.84 55.44-15.96L55.44-15.96L59.96 0L54.04 0L50.16-14.84L47.36-14.84L47.36 0L41.48 0ZM47.36-18.52L49.24-18.52Q51.76-18.52 52.82-19.68Q53.88-20.84 53.88-23.48L53.88-23.48Q53.88-26.04 52.94-27.20Q52-28.36 49.56-28.36L49.56-28.36L47.36-28.36L47.36-18.52Z M63.84 0L64.40-32.40L70.52-32.40L75.12-9.96L79.88-32.40L85.84-32.40L86.44 0L82.04 0L81.56-22.52L76.96 0L73.40 0L68.72-22.60L68.28 0L63.84 0Z"/></g>
</svg>
</g><g opacity="1" transform="rotate(0 348.1916 380)">
<svg width="303.6166" height="120" x="348.1916" y="380" version="1.1" preserveAspectRatio="none" viewBox="2.44 -32.76 84 33.2">
  <g transform="matrix(1 0 0 1 0 0)" class="companyName"><path id="id-D6z1nYkh4" d="M2.44 0L2.44-32.40L15.76-32.40L15.76-28.32L8.32-28.32L8.32-18.88L14.40-18.88L14.40-14.76L8.32-14.76L8.32 0L2.44 0Z M27.80 0.44Q22.76 0.44 20.60-2.26Q18.44-4.96 18.44-10.16L18.44-10.16L18.44-22.32Q18.44-27.48 20.60-30.12Q22.76-32.76 27.80-32.76L27.80-32.76Q32.80-32.76 34.96-30.12Q37.12-27.48 37.12-22.32L37.12-22.32L37.12-10.16Q37.12-5 34.94-2.28Q32.76 0.44 27.80 0.44L27.80 0.44ZM27.80-3.92Q29.76-3.92 30.44-5.16Q31.12-6.40 31.12-8.76L31.12-8.76L31.12-23.68Q31.12-26.04 30.46-27.24Q29.80-28.44 27.80-28.44L27.80-28.44Q25.80-28.44 25.12-27.22Q24.44-26 24.44-23.68L24.44-23.68L24.44-8.76Q24.44-6.40 25.12-5.16Q25.80-3.92 27.80-3.92L27.80-3.92Z M41.48 0L41.48-32.40L49.28-32.40Q54.40-32.40 56.92-30.46Q59.44-28.52 59.44-23.80L59.44-23.80Q59.44-20.72 58.54-18.78Q57.64-16.84 55.44-15.96L55.44-15.96L59.96 0L54.04 0L50.16-14.84L47.36-14.84L47.36 0L41.48 0ZM47.36-18.52L49.24-18.52Q51.76-18.52 52.82-19.68Q53.88-20.84 53.88-23.48L53.88-23.48Q53.88-26.04 52.94-27.20Q52-28.36 49.56-28.36L49.56-28.36L47.36-28.36L47.36-18.52Z M63.84 0L64.40-32.40L70.52-32.40L75.12-9.96L79.88-32.40L85.84-32.40L86.44 0L82.04 0L81.56-22.52L76.96 0L73.40 0L68.72-22.60L68.28 0L63.84 0Z"/></g>
</svg>
</g></svg></svg>